<svg xmlns="http://www.w3.org/2000/svg" viewBox="0 0 64 64">
  <defs>
    <linearGradient id="g" x1="0" x2="1" y1="0" y2="1">
      <stop offset="0" stop-color="#5b8cff"/>
      <stop offset="1" stop-color="#00ffe0"/>
    </linearGradient>
  </defs>
  <rect width="64" height="64" rx="14" fill="#0f1524"/>
  <g transform="translate(8 10)">
    <path d="M6 28c8 6 26 6 34 0 3-2 6-7 6-10 0-2-1-3-3-3-3 0-6 3-10 3H12C9 18 5 16 4 16c-2 0-3 1-3 3 0 3 3 8 5 9z" fill="url(#g)"/>
    <circle cx="44" cy="14" r="2" fill="#00ffe0"/>
    <path d="M12 12c0-5 4-8 10-8 3 0 6 1 8 3-7 0-10 3-10 7H12z" fill="#5b8cff" opacity=".9"/>
    <text x="16" y="34" font-family="Inter, system-ui, sans-serif" font-size="10" font-weight="700" fill="#e6ebf5">TG</text>
  </g>
</svg>
